<mxfile host="app.diagrams.net" agent="Mozilla/5.0 (X11; CrOS x86_64 14541.0.0) AppleWebKit/537.36 (KHTML, like Gecko) Chrome/130.0.0.0 Safari/537.36" version="26.0.14">
  <diagram name="Halaman-1" id="Dd6zAoBBWDEP4UWYnoZG">
    <mxGraphModel dx="2084" dy="1778" grid="1" gridSize="10" guides="1" tooltips="1" connect="1" arrows="1" fold="1" page="1" pageScale="1" pageWidth="827" pageHeight="1169" math="0" shadow="0">
      <root>
        <mxCell id="0" />
        <mxCell id="1" parent="0" />
        <mxCell id="AyXInt_FfGXdh9bznU79-2" value="&lt;font style=&quot;font-size: 18px;&quot;&gt;Siswa&lt;/font&gt;" style="rounded=0;whiteSpace=wrap;html=1;" vertex="1" parent="1">
          <mxGeometry x="110" y="165" width="130" height="50" as="geometry" />
        </mxCell>
        <mxCell id="AyXInt_FfGXdh9bznU79-13" value="" style="endArrow=none;html=1;rounded=0;entryX=0;entryY=0.5;entryDx=0;entryDy=0;" edge="1" parent="1" target="AyXInt_FfGXdh9bznU79-4">
          <mxGeometry width="50" height="50" relative="1" as="geometry">
            <mxPoint x="240" y="190" as="sourcePoint" />
            <mxPoint x="370" y="190" as="targetPoint" />
          </mxGeometry>
        </mxCell>
        <mxCell id="AyXInt_FfGXdh9bznU79-102" value="1" style="edgeLabel;html=1;align=center;verticalAlign=middle;resizable=0;points=[];" vertex="1" connectable="0" parent="AyXInt_FfGXdh9bznU79-13">
          <mxGeometry x="-0.8068" y="-2" relative="1" as="geometry">
            <mxPoint as="offset" />
          </mxGeometry>
        </mxCell>
        <mxCell id="AyXInt_FfGXdh9bznU79-23" value="&lt;span style=&quot;font-size: 18px;&quot;&gt;Buku&lt;/span&gt;" style="rounded=0;whiteSpace=wrap;html=1;" vertex="1" parent="1">
          <mxGeometry x="880" y="165" width="130" height="50" as="geometry" />
        </mxCell>
        <mxCell id="AyXInt_FfGXdh9bznU79-24" value="" style="endArrow=none;html=1;rounded=0;" edge="1" parent="1" source="AyXInt_FfGXdh9bznU79-4" target="AyXInt_FfGXdh9bznU79-23">
          <mxGeometry width="50" height="50" relative="1" as="geometry">
            <mxPoint x="500" y="200" as="sourcePoint" />
            <mxPoint x="550" y="150" as="targetPoint" />
          </mxGeometry>
        </mxCell>
        <mxCell id="AyXInt_FfGXdh9bznU79-101" value="N" style="edgeLabel;html=1;align=center;verticalAlign=middle;resizable=0;points=[];" vertex="1" connectable="0" parent="AyXInt_FfGXdh9bznU79-24">
          <mxGeometry x="0.859" y="5" relative="1" as="geometry">
            <mxPoint as="offset" />
          </mxGeometry>
        </mxCell>
        <mxCell id="AyXInt_FfGXdh9bznU79-25" value="&lt;font style=&quot;font-size: 18px;&quot;&gt;Nama&lt;/font&gt;" style="ellipse;whiteSpace=wrap;html=1;" vertex="1" parent="1">
          <mxGeometry x="80" y="50" width="110" height="50" as="geometry" />
        </mxCell>
        <mxCell id="AyXInt_FfGXdh9bznU79-27" value="&lt;font style=&quot;font-size: 18px;&quot;&gt;Nama&lt;/font&gt;" style="ellipse;whiteSpace=wrap;html=1;" vertex="1" parent="1">
          <mxGeometry x="190" y="80" width="110" height="50" as="geometry" />
        </mxCell>
        <mxCell id="AyXInt_FfGXdh9bznU79-28" value="&lt;font style=&quot;font-size: 18px;&quot;&gt;Nama&lt;/font&gt;" style="ellipse;whiteSpace=wrap;html=1;" vertex="1" parent="1">
          <mxGeometry x="-40" y="80" width="110" height="50" as="geometry" />
        </mxCell>
        <mxCell id="AyXInt_FfGXdh9bznU79-29" value="" style="endArrow=none;html=1;rounded=0;" edge="1" parent="1" target="AyXInt_FfGXdh9bznU79-28">
          <mxGeometry width="50" height="50" relative="1" as="geometry">
            <mxPoint x="110" y="175" as="sourcePoint" />
            <mxPoint x="160" y="125" as="targetPoint" />
          </mxGeometry>
        </mxCell>
        <mxCell id="AyXInt_FfGXdh9bznU79-31" value="" style="endArrow=none;html=1;rounded=0;entryX=0.5;entryY=1;entryDx=0;entryDy=0;exitX=0.25;exitY=0;exitDx=0;exitDy=0;" edge="1" parent="1" source="AyXInt_FfGXdh9bznU79-2" target="AyXInt_FfGXdh9bznU79-25">
          <mxGeometry width="50" height="50" relative="1" as="geometry">
            <mxPoint x="150" y="175" as="sourcePoint" />
            <mxPoint x="200" y="125" as="targetPoint" />
          </mxGeometry>
        </mxCell>
        <mxCell id="AyXInt_FfGXdh9bznU79-32" value="" style="endArrow=none;html=1;rounded=0;exitX=1;exitY=0;exitDx=0;exitDy=0;" edge="1" parent="1" source="AyXInt_FfGXdh9bznU79-2">
          <mxGeometry width="50" height="50" relative="1" as="geometry">
            <mxPoint x="210" y="175" as="sourcePoint" />
            <mxPoint x="240" y="130" as="targetPoint" />
          </mxGeometry>
        </mxCell>
        <mxCell id="AyXInt_FfGXdh9bznU79-33" value="&lt;font style=&quot;font-size: 14px;&quot;&gt;id_petugas&lt;/font&gt;" style="ellipse;whiteSpace=wrap;html=1;" vertex="1" parent="1">
          <mxGeometry x="304" y="80" width="110" height="50" as="geometry" />
        </mxCell>
        <mxCell id="AyXInt_FfGXdh9bznU79-34" value="" style="endArrow=none;html=1;rounded=0;entryX=0;entryY=0.5;entryDx=0;entryDy=0;" edge="1" parent="1" target="AyXInt_FfGXdh9bznU79-4">
          <mxGeometry width="50" height="50" relative="1" as="geometry">
            <mxPoint x="500" y="200" as="sourcePoint" />
            <mxPoint x="827" y="200" as="targetPoint" />
          </mxGeometry>
        </mxCell>
        <mxCell id="AyXInt_FfGXdh9bznU79-4" value="&lt;font style=&quot;font-size: 18px;&quot;&gt;Meminjam&lt;/font&gt;" style="rhombus;whiteSpace=wrap;html=1;" vertex="1" parent="1">
          <mxGeometry x="450" y="140" width="130" height="100" as="geometry" />
        </mxCell>
        <mxCell id="AyXInt_FfGXdh9bznU79-38" value="" style="endArrow=none;html=1;rounded=0;entryX=1;entryY=1;entryDx=0;entryDy=0;exitX=0.18;exitY=0.333;exitDx=0;exitDy=0;exitPerimeter=0;" edge="1" parent="1" source="AyXInt_FfGXdh9bznU79-4" target="AyXInt_FfGXdh9bznU79-33">
          <mxGeometry width="50" height="50" relative="1" as="geometry">
            <mxPoint x="470" y="165" as="sourcePoint" />
            <mxPoint x="520" y="115" as="targetPoint" />
          </mxGeometry>
        </mxCell>
        <mxCell id="AyXInt_FfGXdh9bznU79-40" value="&lt;font style=&quot;font-size: 14px;&quot;&gt;id_peminjman&lt;/font&gt;" style="ellipse;whiteSpace=wrap;html=1;" vertex="1" parent="1">
          <mxGeometry x="420" y="50" width="110" height="50" as="geometry" />
        </mxCell>
        <mxCell id="AyXInt_FfGXdh9bznU79-43" value="" style="endArrow=none;html=1;rounded=0;entryX=0.5;entryY=1;entryDx=0;entryDy=0;" edge="1" parent="1" target="AyXInt_FfGXdh9bznU79-40">
          <mxGeometry width="50" height="50" relative="1" as="geometry">
            <mxPoint x="480" y="165" as="sourcePoint" />
            <mxPoint x="530" y="115" as="targetPoint" />
          </mxGeometry>
        </mxCell>
        <mxCell id="AyXInt_FfGXdh9bznU79-44" style="edgeStyle=orthogonalEdgeStyle;rounded=0;orthogonalLoop=1;jettySize=auto;html=1;exitX=0.5;exitY=1;exitDx=0;exitDy=0;" edge="1" parent="1" source="AyXInt_FfGXdh9bznU79-4" target="AyXInt_FfGXdh9bznU79-4">
          <mxGeometry relative="1" as="geometry" />
        </mxCell>
        <mxCell id="AyXInt_FfGXdh9bznU79-45" value="&lt;span style=&quot;font-size: 14px;&quot;&gt;id_buku&lt;/span&gt;" style="ellipse;whiteSpace=wrap;html=1;" vertex="1" parent="1">
          <mxGeometry x="530" y="40" width="110" height="50" as="geometry" />
        </mxCell>
        <mxCell id="AyXInt_FfGXdh9bznU79-50" value="" style="endArrow=none;html=1;rounded=0;entryX=0.455;entryY=1;entryDx=0;entryDy=0;entryPerimeter=0;" edge="1" parent="1" target="AyXInt_FfGXdh9bznU79-45">
          <mxGeometry width="50" height="50" relative="1" as="geometry">
            <mxPoint x="530" y="150" as="sourcePoint" />
            <mxPoint x="580" y="100" as="targetPoint" />
          </mxGeometry>
        </mxCell>
        <mxCell id="AyXInt_FfGXdh9bznU79-51" value="&lt;font style=&quot;font-size: 14px;&quot;&gt;Nis&lt;/font&gt;" style="ellipse;whiteSpace=wrap;html=1;" vertex="1" parent="1">
          <mxGeometry x="640" y="20" width="110" height="50" as="geometry" />
        </mxCell>
        <mxCell id="AyXInt_FfGXdh9bznU79-54" value="" style="endArrow=none;html=1;rounded=0;entryX=0.303;entryY=0.946;entryDx=0;entryDy=0;entryPerimeter=0;exitX=0.783;exitY=0.28;exitDx=0;exitDy=0;exitPerimeter=0;" edge="1" parent="1" source="AyXInt_FfGXdh9bznU79-4" target="AyXInt_FfGXdh9bznU79-51">
          <mxGeometry width="50" height="50" relative="1" as="geometry">
            <mxPoint x="540" y="160" as="sourcePoint" />
            <mxPoint x="590" y="100" as="targetPoint" />
          </mxGeometry>
        </mxCell>
        <mxCell id="AyXInt_FfGXdh9bznU79-55" value="&lt;span style=&quot;font-size: 14px;&quot;&gt;waktu peminajaman&lt;/span&gt;" style="ellipse;whiteSpace=wrap;html=1;" vertex="1" parent="1">
          <mxGeometry x="650" y="80" width="110" height="50" as="geometry" />
        </mxCell>
        <mxCell id="AyXInt_FfGXdh9bznU79-56" value="" style="endArrow=none;html=1;rounded=0;" edge="1" parent="1" target="AyXInt_FfGXdh9bznU79-55">
          <mxGeometry width="50" height="50" relative="1" as="geometry">
            <mxPoint x="570" y="180" as="sourcePoint" />
            <mxPoint x="620" y="130" as="targetPoint" />
          </mxGeometry>
        </mxCell>
        <mxCell id="AyXInt_FfGXdh9bznU79-57" value="&lt;span style=&quot;font-size: 14px;&quot;&gt;Id buku&lt;/span&gt;" style="ellipse;whiteSpace=wrap;html=1;" vertex="1" parent="1">
          <mxGeometry x="760" y="80" width="110" height="50" as="geometry" />
        </mxCell>
        <mxCell id="AyXInt_FfGXdh9bznU79-58" value="&lt;span style=&quot;font-size: 14px;&quot;&gt;jenis&lt;/span&gt;" style="ellipse;whiteSpace=wrap;html=1;" vertex="1" parent="1">
          <mxGeometry x="870" y="-60" width="110" height="50" as="geometry" />
        </mxCell>
        <mxCell id="AyXInt_FfGXdh9bznU79-60" value="&lt;span style=&quot;font-size: 14px;&quot;&gt;judul&lt;/span&gt;" style="ellipse;whiteSpace=wrap;html=1;" vertex="1" parent="1">
          <mxGeometry x="790" y="10" width="110" height="50" as="geometry" />
        </mxCell>
        <mxCell id="AyXInt_FfGXdh9bznU79-61" value="&lt;span style=&quot;font-size: 14px;&quot;&gt;jumlah&lt;/span&gt;" style="ellipse;whiteSpace=wrap;html=1;" vertex="1" parent="1">
          <mxGeometry x="1060" y="60" width="110" height="50" as="geometry" />
        </mxCell>
        <mxCell id="AyXInt_FfGXdh9bznU79-62" value="&lt;span style=&quot;font-size: 14px;&quot;&gt;id_petugas&lt;/span&gt;" style="ellipse;whiteSpace=wrap;html=1;" vertex="1" parent="1">
          <mxGeometry x="1200" y="165" width="110" height="50" as="geometry" />
        </mxCell>
        <mxCell id="AyXInt_FfGXdh9bznU79-63" value="&lt;span style=&quot;font-size: 14px;&quot;&gt;penerbit&lt;/span&gt;" style="ellipse;whiteSpace=wrap;html=1;" vertex="1" parent="1">
          <mxGeometry x="990" y="10" width="110" height="50" as="geometry" />
        </mxCell>
        <mxCell id="AyXInt_FfGXdh9bznU79-64" value="" style="endArrow=none;html=1;rounded=0;" edge="1" parent="1">
          <mxGeometry width="50" height="50" relative="1" as="geometry">
            <mxPoint x="930" y="600" as="sourcePoint" />
            <mxPoint x="930" y="215" as="targetPoint" />
          </mxGeometry>
        </mxCell>
        <mxCell id="AyXInt_FfGXdh9bznU79-99" value="N" style="edgeLabel;html=1;align=center;verticalAlign=middle;resizable=0;points=[];" vertex="1" connectable="0" parent="AyXInt_FfGXdh9bznU79-64">
          <mxGeometry x="0.8523" y="-2" relative="1" as="geometry">
            <mxPoint y="1" as="offset" />
          </mxGeometry>
        </mxCell>
        <mxCell id="AyXInt_FfGXdh9bznU79-66" value="" style="endArrow=none;html=1;rounded=0;entryX=0.686;entryY=1.003;entryDx=0;entryDy=0;entryPerimeter=0;exitX=0.25;exitY=0;exitDx=0;exitDy=0;" edge="1" parent="1" source="AyXInt_FfGXdh9bznU79-23" target="AyXInt_FfGXdh9bznU79-57">
          <mxGeometry width="50" height="50" relative="1" as="geometry">
            <mxPoint x="900" y="160" as="sourcePoint" />
            <mxPoint x="590" y="100" as="targetPoint" />
          </mxGeometry>
        </mxCell>
        <mxCell id="AyXInt_FfGXdh9bznU79-67" value="" style="endArrow=none;html=1;rounded=0;exitX=0.442;exitY=0.006;exitDx=0;exitDy=0;exitPerimeter=0;" edge="1" parent="1" source="AyXInt_FfGXdh9bznU79-23" target="AyXInt_FfGXdh9bznU79-60">
          <mxGeometry width="50" height="50" relative="1" as="geometry">
            <mxPoint x="930" y="160" as="sourcePoint" />
            <mxPoint x="845" y="140" as="targetPoint" />
          </mxGeometry>
        </mxCell>
        <mxCell id="AyXInt_FfGXdh9bznU79-68" value="" style="endArrow=none;html=1;rounded=0;entryX=0.5;entryY=1;entryDx=0;entryDy=0;" edge="1" parent="1" source="AyXInt_FfGXdh9bznU79-23" target="AyXInt_FfGXdh9bznU79-63">
          <mxGeometry width="50" height="50" relative="1" as="geometry">
            <mxPoint x="923" y="189" as="sourcePoint" />
            <mxPoint x="855" y="150" as="targetPoint" />
          </mxGeometry>
        </mxCell>
        <mxCell id="AyXInt_FfGXdh9bznU79-69" value="" style="endArrow=none;html=1;rounded=0;entryX=0.58;entryY=1.051;entryDx=0;entryDy=0;entryPerimeter=0;exitX=0.5;exitY=0;exitDx=0;exitDy=0;" edge="1" parent="1" source="AyXInt_FfGXdh9bznU79-23" target="AyXInt_FfGXdh9bznU79-58">
          <mxGeometry width="50" height="50" relative="1" as="geometry">
            <mxPoint x="933" y="199" as="sourcePoint" />
            <mxPoint x="865" y="160" as="targetPoint" />
          </mxGeometry>
        </mxCell>
        <mxCell id="AyXInt_FfGXdh9bznU79-70" value="" style="endArrow=none;html=1;rounded=0;entryX=0.5;entryY=1;entryDx=0;entryDy=0;exitX=0.933;exitY=-0.027;exitDx=0;exitDy=0;exitPerimeter=0;" edge="1" parent="1" source="AyXInt_FfGXdh9bznU79-23" target="AyXInt_FfGXdh9bznU79-61">
          <mxGeometry width="50" height="50" relative="1" as="geometry">
            <mxPoint x="943" y="209" as="sourcePoint" />
            <mxPoint x="875" y="170" as="targetPoint" />
          </mxGeometry>
        </mxCell>
        <mxCell id="AyXInt_FfGXdh9bznU79-71" value="" style="endArrow=none;html=1;rounded=0;entryX=0;entryY=1;entryDx=0;entryDy=0;exitX=1;exitY=0.5;exitDx=0;exitDy=0;" edge="1" parent="1" source="AyXInt_FfGXdh9bznU79-23" target="AyXInt_FfGXdh9bznU79-62">
          <mxGeometry width="50" height="50" relative="1" as="geometry">
            <mxPoint x="953" y="219" as="sourcePoint" />
            <mxPoint x="885" y="180" as="targetPoint" />
          </mxGeometry>
        </mxCell>
        <mxCell id="AyXInt_FfGXdh9bznU79-72" value="mengelola" style="rhombus;whiteSpace=wrap;html=1;" vertex="1" parent="1">
          <mxGeometry x="870" y="585" width="100" height="45" as="geometry" />
        </mxCell>
        <mxCell id="AyXInt_FfGXdh9bznU79-74" value="&lt;span style=&quot;font-size: 18px;&quot;&gt;petugas&lt;/span&gt;" style="rounded=0;whiteSpace=wrap;html=1;" vertex="1" parent="1">
          <mxGeometry x="490" y="610" width="130" height="50" as="geometry" />
        </mxCell>
        <mxCell id="AyXInt_FfGXdh9bznU79-78" value="" style="endArrow=none;html=1;rounded=0;entryX=1;entryY=0.5;entryDx=0;entryDy=0;exitX=0;exitY=0.5;exitDx=0;exitDy=0;" edge="1" parent="1" source="AyXInt_FfGXdh9bznU79-72" target="AyXInt_FfGXdh9bznU79-74">
          <mxGeometry width="50" height="50" relative="1" as="geometry">
            <mxPoint x="870" y="610" as="sourcePoint" />
            <mxPoint x="920" y="560" as="targetPoint" />
            <Array as="points" />
          </mxGeometry>
        </mxCell>
        <mxCell id="AyXInt_FfGXdh9bznU79-100" value="1" style="edgeLabel;html=1;align=center;verticalAlign=middle;resizable=0;points=[];" vertex="1" connectable="0" parent="AyXInt_FfGXdh9bznU79-78">
          <mxGeometry x="0.8245" y="-2" relative="1" as="geometry">
            <mxPoint x="1" as="offset" />
          </mxGeometry>
        </mxCell>
        <mxCell id="AyXInt_FfGXdh9bznU79-83" value="&lt;span style=&quot;font-size: 14px;&quot;&gt;no_hp&lt;/span&gt;" style="ellipse;whiteSpace=wrap;html=1;" vertex="1" parent="1">
          <mxGeometry x="320" y="680" width="110" height="50" as="geometry" />
        </mxCell>
        <mxCell id="AyXInt_FfGXdh9bznU79-85" value="&lt;font style=&quot;font-size: 14px;&quot;&gt;id_petugas&lt;/font&gt;" style="ellipse;whiteSpace=wrap;html=1;" vertex="1" parent="1">
          <mxGeometry x="350" y="500" width="110" height="50" as="geometry" />
        </mxCell>
        <mxCell id="AyXInt_FfGXdh9bznU79-86" value="&lt;span style=&quot;font-size: 14px;&quot;&gt;nama&lt;/span&gt;" style="ellipse;whiteSpace=wrap;html=1;" vertex="1" parent="1">
          <mxGeometry x="270" y="585" width="110" height="50" as="geometry" />
        </mxCell>
        <mxCell id="AyXInt_FfGXdh9bznU79-90" value="" style="endArrow=none;html=1;rounded=0;entryX=1;entryY=1;entryDx=0;entryDy=0;exitX=0.25;exitY=0;exitDx=0;exitDy=0;" edge="1" parent="1" source="AyXInt_FfGXdh9bznU79-74" target="AyXInt_FfGXdh9bznU79-85">
          <mxGeometry width="50" height="50" relative="1" as="geometry">
            <mxPoint x="880" y="618" as="sourcePoint" />
            <mxPoint x="630" y="645" as="targetPoint" />
            <Array as="points" />
          </mxGeometry>
        </mxCell>
        <mxCell id="AyXInt_FfGXdh9bznU79-91" value="" style="endArrow=none;html=1;rounded=0;entryX=1;entryY=0.5;entryDx=0;entryDy=0;exitX=0;exitY=0.5;exitDx=0;exitDy=0;" edge="1" parent="1" source="AyXInt_FfGXdh9bznU79-74" target="AyXInt_FfGXdh9bznU79-86">
          <mxGeometry width="50" height="50" relative="1" as="geometry">
            <mxPoint x="580" y="622" as="sourcePoint" />
            <mxPoint x="431" y="562" as="targetPoint" />
            <Array as="points" />
          </mxGeometry>
        </mxCell>
        <mxCell id="AyXInt_FfGXdh9bznU79-92" value="" style="endArrow=none;html=1;rounded=0;entryX=1;entryY=0;entryDx=0;entryDy=0;exitX=0.1;exitY=1.007;exitDx=0;exitDy=0;exitPerimeter=0;" edge="1" parent="1" source="AyXInt_FfGXdh9bznU79-74" target="AyXInt_FfGXdh9bznU79-83">
          <mxGeometry width="50" height="50" relative="1" as="geometry">
            <mxPoint x="500" y="645" as="sourcePoint" />
            <mxPoint x="390" y="620" as="targetPoint" />
            <Array as="points" />
          </mxGeometry>
        </mxCell>
        <mxCell id="AyXInt_FfGXdh9bznU79-94" value="mentujui" style="rhombus;whiteSpace=wrap;html=1;" vertex="1" parent="1">
          <mxGeometry x="475" y="330" width="80" height="80" as="geometry" />
        </mxCell>
        <mxCell id="AyXInt_FfGXdh9bznU79-95" value="" style="endArrow=none;html=1;rounded=0;entryX=0.5;entryY=1;entryDx=0;entryDy=0;exitX=0.5;exitY=0;exitDx=0;exitDy=0;" edge="1" parent="1" source="AyXInt_FfGXdh9bznU79-94" target="AyXInt_FfGXdh9bznU79-4">
          <mxGeometry width="50" height="50" relative="1" as="geometry">
            <mxPoint x="820" y="450" as="sourcePoint" />
            <mxPoint x="870" y="400" as="targetPoint" />
          </mxGeometry>
        </mxCell>
        <mxCell id="AyXInt_FfGXdh9bznU79-98" value="N" style="edgeLabel;html=1;align=center;verticalAlign=middle;resizable=0;points=[];" vertex="1" connectable="0" parent="AyXInt_FfGXdh9bznU79-95">
          <mxGeometry x="0.4794" y="-7" relative="1" as="geometry">
            <mxPoint y="1" as="offset" />
          </mxGeometry>
        </mxCell>
        <mxCell id="AyXInt_FfGXdh9bznU79-96" value="" style="endArrow=none;html=1;rounded=0;entryX=0.5;entryY=1;entryDx=0;entryDy=0;exitX=0.5;exitY=0;exitDx=0;exitDy=0;" edge="1" parent="1" source="AyXInt_FfGXdh9bznU79-74" target="AyXInt_FfGXdh9bznU79-94">
          <mxGeometry width="50" height="50" relative="1" as="geometry">
            <mxPoint x="525" y="340" as="sourcePoint" />
            <mxPoint x="525" y="250" as="targetPoint" />
          </mxGeometry>
        </mxCell>
        <mxCell id="AyXInt_FfGXdh9bznU79-97" value="1" style="edgeLabel;html=1;align=center;verticalAlign=middle;resizable=0;points=[];" vertex="1" connectable="0" parent="AyXInt_FfGXdh9bznU79-96">
          <mxGeometry x="-0.719" y="1" relative="1" as="geometry">
            <mxPoint as="offset" />
          </mxGeometry>
        </mxCell>
      </root>
    </mxGraphModel>
  </diagram>
</mxfile>
